<svg width="58" height="58" viewBox="0 0 58 58" fill="none" xmlns="http://www.w3.org/2000/svg">
<circle cx="29" cy="29" r="29" fill="#2d2d2d"/>
<path d="M30.4956 13C31.1797 13 33.4033 13.225 36.3474 14.6823C39.0965 16.043 41.2894 18.8523 42.733 20.965C44.5728 23.6573 43.992 29.0652 43.553 32.8984C43.1339 36.5571 40.9384 39.3495 39.7594 40.6255C37.7624 42.7868 35.4052 43.3477 31.2913 44.486C27.0169 45.6688 22.8606 44.6769 19.3609 42.8678C17.1455 41.7225 15.0738 37.8862 14.1777 35.9635C10 27 15.5969 20.8094 16.8711 18.9531C18.0373 17.2541 19.6327 16.4135 21.0246 15.4241C21.4483 15.1229 22.099 14.8978 22.1906 14.7014C22.8056 13.3826 18.2722 14.1832 17.1455 14.0327C16.5772 13.9568 16.0045 13.9459 17.0628 13.9321C20.8244 13.8831 23.8539 14.0922 24.1036 14.6807C23.8713 15.7453 23.527 16.7324 23.3611 17.7695C23.2938 18.4895 23.2609 21.6025 23.8022 23.1632" stroke="white" stroke-width="3"/>
</svg>
