<svg width="58" height="58" viewBox="0 0 58 58" fill="none" xmlns="http://www.w3.org/2000/svg">
<circle cx="29" cy="29" r="29" fill="#A8A8A8"/>
<path d="M26.4331 24.4478C26.4201 24.4499 25.6157 24.7401 25.1527 26.374C24.8975 27.2745 24.6161 28.9009 24.5179 29.7405C24.24 32.1146 25.3766 32.9916 25.844 33.4981C26.3354 34.0304 27.6832 34.3422 28.5279 34.3866C29.9154 34.4595 30.7523 33.5261 31.8939 32.2443C32.8674 31.1513 33.183 29.8767 33.3674 28.608C33.5753 27.1772 33.2579 25.9296 33.1697 25.4259C33.0328 24.6438 32.2184 23.9965 30.807 23.6514C29.3956 23.3062 27.2658 24.2167 26.2278 24.5635" stroke="white" stroke-width="3"/>
<path d="M25.8816 17.7965C25.8797 17.7851 25.7765 17.1551 25.6313 15.9414C25.3887 13.9139 25.9627 12.8255 26.2051 12.3669C26.4879 11.8315 27.1824 11.652 28.0754 11.4251C30.1944 10.8865 31.0581 11.2012 31.5972 11.3888C31.7906 11.4561 31.886 11.6361 31.9582 11.871C32.0616 12.2075 32.052 12.542 32.0478 12.9021C32.0283 14.5725 32.2684 16.2755 32.2454 16.6695C32.2299 16.9344 33.1566 16.8585 34.1812 17.2581C35.486 17.7669 36.3182 18.5464 36.755 18.9677C37.1864 19.3837 37.6049 19.9328 38.0285 20.3731C38.486 20.8487 40.3341 19.7375 41.1237 19.3163C41.6414 19.0401 42.4513 18.3574 42.8745 18.1991C43.0379 18.1379 43.2141 18.4643 43.5258 19.0172C44.1185 20.0682 44.4681 21.1447 44.6193 21.7038C44.9025 22.7509 45.0981 24.2548 44.9986 24.419C44.8942 24.5911 44.1332 24.9073 43.1177 25.3662C41.98 25.6984 40.6032 25.871 39.8524 25.9863C39.7138 26.0287 39.6543 26.0778 39.6486 26.137" stroke="white" stroke-width="3"/>
<path d="M39.7945 30.4911C39.8057 30.4942 40.421 30.6644 41.5838 31.0411C43.5264 31.6704 44.2741 32.6477 44.589 33.0599C44.9566 33.541 44.8285 34.2468 44.6605 35.1528C44.2616 37.3024 43.614 37.9548 43.2177 38.3657C43.0756 38.513 42.8722 38.5243 42.6287 38.4914C42.2798 38.4443 41.9801 38.2954 41.6549 38.1407C40.1464 37.4231 38.4994 36.9275 38.1513 36.7416C37.9173 36.6166 37.5979 37.4898 36.8058 38.2527C35.7971 39.2242 34.7407 39.6532 34.175 39.8733C33.6166 40.0907 32.9427 40.2406 32.3654 40.4407C31.7419 40.6569 31.9764 42.8005 32.0281 43.6939C32.0619 44.2797 32.3425 45.3011 32.3089 45.7517C32.2959 45.9258 31.9258 45.9489 31.2931 46.0003C30.0905 46.0981 28.9666 45.9645 28.3956 45.8676C27.3262 45.6859 25.8787 45.2334 25.7713 45.0742C25.6588 44.9074 25.6905 44.0839 25.6994 42.9695C25.8744 41.7973 26.2946 40.4749 26.5045 39.7448" stroke="white" stroke-width="3"/>
<path d="M21.732 36.9939C21.7236 37.0018 21.2602 37.441 20.3374 38.2426C18.7959 39.5817 17.5729 39.7177 17.0573 39.7748C16.4555 39.8413 15.9171 39.3674 15.2278 38.7558C13.5925 37.3048 13.3679 36.4133 13.2205 35.8619C13.1676 35.6641 13.263 35.4841 13.4168 35.2925C13.6372 35.018 13.9194 34.8381 14.2197 34.6394C15.6129 33.7177 16.8874 32.5628 17.2263 32.3606C17.4542 32.2247 16.8711 31.5004 16.6264 30.4282C16.3149 29.0628 16.4927 27.9365 16.596 27.3385C16.6981 26.748 16.9174 26.0934 17.044 25.4957C17.1806 24.85 15.2235 23.9446 14.4316 23.5277C13.9124 23.2544 12.8928 22.9675 12.5241 22.7062C12.3817 22.6053 12.5529 22.2763 12.8354 21.7079C13.3724 20.6274 14.0668 19.7336 14.4446 19.2946C15.152 18.4724 16.2867 17.4661 16.4785 17.4563C16.6794 17.446 17.3684 17.8982 18.3183 18.4809C19.232 19.2357 20.1478 20.2782 20.6649 20.8347C20.7777 20.9256 20.8517 20.9473 20.9039 20.9188" stroke="white" stroke-width="3"/>
<path d="M20.6409 21.0224C20.8216 20.8954 21.1087 20.6447 21.6993 20.1533C22.0925 19.8262 22.7304 19.41 23.3313 19.0402C23.9322 18.6705 24.4907 18.3775 24.9095 18.1812C25.3284 17.9848 25.5906 17.8941 25.7688 17.8286C25.9469 17.7631 26.033 17.7256 26.165 17.6705" stroke="white" stroke-width="3"/>
<path d="M39.6391 26.1086C39.6387 26.1058 39.6382 26.1029 39.683 26.3765C39.7278 26.6501 39.818 27.2003 39.8693 27.8076C39.9206 28.4149 39.9303 29.0626 39.9333 29.4209C39.9363 29.7791 39.9324 29.8282 39.9317 29.8727C39.9311 29.9172 39.9339 29.9556 39.9317 30.0789" stroke="white" stroke-width="3"/>
<path d="M20.7451 36.4549C20.7895 36.462 20.9654 36.5293 21.4889 36.822C21.9426 37.0757 22.7818 37.5366 23.2686 37.8143C23.8722 38.1587 24.0343 38.2815 24.5071 38.5979C24.9275 38.8793 25.6987 39.4289 26.2108 39.765C26.723 40.1011 26.9487 40.2131 27.1514 40.3028C27.3541 40.3926 27.527 40.4569 27.741 40.5408" stroke="white" stroke-width="2"/>
</svg>
