<svg width="100" height="100" viewBox="0 0 170 170" fill="none" xmlns="http://www.w3.org/2000/svg">
<path d="M2.92969 2.46118H166.93V166.461H2.92969V2.46118Z" fill="#FFD166"/>
<path d="M71.0497 2.61529L71.2882 4.60101L71.0497 2.61529ZM167.101 11.3812L165.109 11.5526L167.101 11.3812ZM166.921 32.3412L164.939 32.6102L166.921 32.3412ZM167.384 53.3012L165.384 53.3075L167.384 53.3012ZM166.835 63.7812L164.846 63.5663L166.835 63.7812ZM166.012 116.181L168.012 116.155L166.012 116.181ZM143.85 167.086L143.987 169.081L143.85 167.086ZM122.89 165.95L122.823 167.948L122.89 165.95ZM70.4897 167.19L70.419 169.189L70.4897 167.19ZM39.0497 166.439L39.2906 164.454L39.0497 166.439ZM7.64327 165.869L7.65573 167.869L7.64327 165.869ZM2.93719 24.4212L0.971429 24.0527L2.93719 24.4212ZM3.35425 5.58119L1.37964 5.26353L3.35425 5.58119ZM8.16969 2.22753L8.25878 4.22554C11.7214 4.07115 15.1839 3.99678 18.6464 4.00245L18.6497 2.00246L18.653 0.00245833C15.1288 -0.00331187 11.6047 0.0723748 8.0806 0.229514L8.16969 2.22753ZM18.6497 2.00246L18.6464 4.00245C22.0758 4.00807 25.5055 4.17785 28.9358 4.51191L29.1297 2.52132L29.3235 0.530739C25.7672 0.184409 22.2102 0.0082829 18.653 0.00245833L18.6497 2.00246ZM29.1297 2.52132L28.9358 4.51191C32.4918 4.8582 36.0483 5.03538 39.6052 5.04335L39.6097 3.04335L39.6142 1.04336C36.1844 1.03567 32.7542 0.86483 29.3235 0.530739L29.1297 2.52132ZM39.6097 3.04335L39.6052 5.04335C43.1564 5.0513 46.7074 4.90534 50.258 4.60553L50.0897 2.61262L49.9214 0.619714C46.4853 0.90986 43.0496 1.05105 39.6142 1.04336L39.6097 3.04335ZM50.0897 2.61262L50.258 4.60553C53.6272 4.32103 56.9959 4.35148 60.3657 4.697L60.5697 2.70743L60.7737 0.717864C57.1568 0.347012 53.5389 0.314252 49.9214 0.619714L50.0897 2.61262ZM60.5697 2.70743L60.3657 4.697C64.0065 5.07031 67.6483 5.03824 71.2882 4.60101L71.0497 2.61529L70.8112 0.629562C67.4645 1.03157 64.1195 1.06093 60.7737 0.717864L60.5697 2.70743ZM71.0497 2.61529L71.2882 4.60101C74.6183 4.201 77.9467 4.21282 81.2773 4.63656L81.5297 2.65256L81.7821 0.668552C78.126 0.203372 74.4677 0.190336 70.8112 0.629562L71.0497 2.61529ZM81.5297 2.65256L81.2773 4.63656C84.8657 5.09313 88.4557 5.28859 92.0464 5.22257L92.0097 3.22291L91.9729 1.22325C88.577 1.28569 85.1803 1.10091 81.7821 0.668552L81.5297 2.65256ZM92.0097 3.22291L92.0464 5.22257C95.6134 5.15699 99.1797 4.89472 102.745 4.436L102.49 2.45235L102.234 0.468703C98.813 0.908928 95.3926 1.16037 91.9729 1.22325L92.0097 3.22291ZM102.49 2.45235L102.745 4.436C106.073 4.00777 109.399 3.99705 112.727 4.40375L112.97 2.41852L113.212 0.433286C109.553 -0.0138583 105.893 -0.00201511 102.234 0.468703L102.49 2.45235ZM112.97 2.41852L112.727 4.40375C116.353 4.84685 119.981 4.92453 123.608 4.63637L123.45 2.64265L123.291 0.648932C119.932 0.915769 116.573 0.844017 113.212 0.433286L112.97 2.41852ZM123.45 2.64265L123.608 4.63637C127.062 4.36198 130.516 4.1897 133.97 4.1195L133.93 2.11992L133.889 0.120328C130.356 0.192125 126.824 0.368334 123.291 0.648932L123.45 2.64265ZM133.93 2.11992L133.97 4.1195C137.452 4.04875 140.933 4.00924 144.414 4.00098L144.41 2.00098L144.405 0.000987768C140.9 0.00930953 137.394 0.0490897 133.889 0.120328L133.93 2.11992ZM144.41 2.00098L144.414 4.00098C147.888 3.99273 151.361 4.03656 154.834 4.13246L154.89 2.13322L154.945 0.13398C151.432 0.0369778 147.918 -0.00735307 144.405 0.000987768L144.41 2.00098ZM154.89 2.13322L154.834 4.13246C158.112 4.22294 160.58 4.86954 162.371 5.93023L163.39 4.20953L164.41 2.48884C161.853 0.974011 158.654 0.236393 154.945 0.13398L154.89 2.13322ZM163.39 4.20953L162.371 5.93023C163.792 6.77198 164.84 8.43359 165.109 11.5526L167.101 11.3812L169.094 11.2098C168.761 7.34209 167.336 4.2226 164.41 2.48884L163.39 4.20953ZM167.101 11.3812L165.109 11.5526C165.397 14.9035 165.326 18.2542 164.897 21.6071L166.881 21.8612L168.865 22.1152C169.33 18.4815 169.407 14.8455 169.094 11.2098L167.101 11.3812ZM166.881 21.8612L164.897 21.6071C164.427 25.2743 164.441 28.9435 164.939 32.6102L166.921 32.3412L168.903 32.0722C168.452 28.7522 168.44 25.4347 168.865 22.1152L166.881 21.8612ZM166.921 32.3412L164.939 32.6102C165.399 35.9986 165.586 39.3851 165.501 42.7708L167.5 42.8212L169.499 42.8716C169.59 39.2705 169.391 35.6704 168.903 32.0722L166.921 32.3412ZM167.5 42.8212L165.501 42.7708C165.412 46.283 165.373 49.7952 165.384 53.3075L167.384 53.3012L169.384 53.2949C169.374 49.8205 169.412 46.346 169.499 42.8716L167.5 42.8212ZM167.384 53.3012L165.384 53.3075C165.395 56.7265 165.216 60.146 164.846 63.5663L166.835 63.7812L168.823 63.996C169.209 60.4297 169.396 56.8625 169.384 53.2949L167.384 53.3012ZM166.835 63.7812L164.846 63.5663C164.455 67.1843 164.407 70.8037 164.7 74.4226L166.693 74.2612L168.687 74.0997C168.414 70.732 168.459 67.3647 168.823 63.996L166.835 63.7812ZM166.693 74.2612L164.7 74.4226C164.976 77.8319 165.035 81.2406 164.879 84.6493L166.876 84.7412L168.874 84.8331C169.039 81.2551 168.976 77.6771 168.687 74.0997L166.693 74.2612ZM166.876 84.7412L164.879 84.6493C164.714 88.233 164.792 91.8167 165.113 95.3997L167.105 95.2212L169.097 95.0427C168.792 91.639 168.718 88.236 168.874 84.8331L166.876 84.7412ZM167.105 95.2212L165.113 95.3997C165.411 98.7296 165.301 102.06 164.782 105.393L166.759 105.701L168.735 106.009C169.304 102.356 169.425 98.6994 169.097 95.0427L167.105 95.2212ZM166.759 105.701L164.782 105.393C164.222 108.996 163.965 112.601 164.013 116.208L166.012 116.181L168.012 116.155C167.967 112.774 168.208 109.393 168.735 106.009L166.759 105.701ZM166.012 116.181L164.013 116.208C164.06 119.758 164.259 123.309 164.611 126.858L166.602 126.661L168.592 126.464C168.251 123.027 168.058 119.591 168.012 116.155L166.012 116.181ZM166.602 126.661L164.611 126.858C164.947 130.246 165.011 133.632 164.802 137.018L166.799 137.141L168.795 137.264C169.016 133.664 168.949 130.063 168.592 126.464L166.602 126.661ZM166.799 137.141L164.802 137.018C164.583 140.577 164.538 144.135 164.668 147.694L166.667 147.621L168.666 147.548C168.541 144.12 168.584 140.692 168.795 137.264L166.799 137.141ZM166.667 147.621L164.668 147.694C164.796 151.195 164.943 154.696 165.11 158.196L167.107 158.101L169.105 158.006C168.939 154.52 168.793 151.034 168.666 147.548L166.667 147.621ZM167.107 158.101L165.11 158.196C165.182 159.705 164.945 160.765 164.555 161.501C164.183 162.201 163.602 162.743 162.692 163.123L163.463 164.969L164.235 166.814C165.92 166.109 167.245 164.965 168.088 163.375C168.913 161.821 169.2 159.99 169.105 158.006L167.107 158.101ZM163.463 164.969L162.692 163.123C160.383 164.089 157.602 164.62 154.305 164.66L154.33 166.66L154.354 168.66C158.044 168.615 161.353 168.019 164.235 166.814L163.463 164.969ZM154.33 166.66L154.305 164.66C150.774 164.703 147.243 164.847 143.712 165.091L143.85 167.086L143.987 169.081C147.443 168.843 150.899 168.702 154.354 168.66L154.33 166.66ZM143.85 167.086L143.712 165.091C140.349 165.323 136.986 165.227 133.62 164.802L133.37 166.786L133.119 168.77C136.74 169.228 140.364 169.331 143.987 169.081L143.85 167.086ZM133.37 166.786L133.62 164.802C130.066 164.353 126.512 164.069 122.956 163.951L122.89 165.95L122.823 167.948C126.254 168.063 129.686 168.337 133.119 168.77L133.37 166.786ZM122.89 165.95L122.956 163.951C119.346 163.83 115.736 164.027 112.129 164.538L112.41 166.518L112.691 168.499C116.07 168.019 119.447 167.836 122.823 167.948L122.89 165.95ZM112.41 166.518L112.129 164.538C108.827 165.007 105.528 164.994 102.225 164.5L101.93 166.478L101.634 168.456C105.318 169.007 109.006 169.021 112.691 168.499L112.41 166.518ZM101.93 166.478L102.225 164.5C98.5734 163.954 94.9181 163.852 91.2628 164.195L91.4497 166.187L91.6366 168.178C94.968 167.865 98.2993 167.958 101.634 168.456L101.93 166.478ZM91.4497 166.187L91.2628 164.195C87.7875 164.522 84.3122 164.8 80.837 165.031L80.9697 167.027L81.1024 169.022C84.6138 168.789 88.1252 168.507 91.6366 168.178L91.4497 166.187ZM80.9697 167.027L80.837 165.031C77.4113 165.259 73.9859 165.312 70.5604 165.191L70.4897 167.19L70.419 169.189C73.9802 169.315 77.5415 169.259 81.1024 169.022L80.9697 167.027ZM70.4897 167.19L70.5604 165.191C67.1254 165.069 63.6899 164.798 60.2537 164.375L60.0097 166.36L59.7657 168.345C63.3162 168.782 66.8673 169.063 70.419 169.189L70.4897 167.19ZM60.0097 166.36L60.2537 164.375C56.5938 163.925 52.9321 163.938 49.2725 164.412L49.5297 166.396L49.7869 168.379C53.114 167.948 56.439 167.936 59.7657 168.345L60.0097 166.36ZM49.5297 166.396L49.2725 164.412C45.9443 164.844 42.6183 164.858 39.2906 164.454L39.0497 166.439L38.8088 168.425C42.4678 168.869 46.1284 168.853 49.7869 168.379L49.5297 166.396ZM39.0497 166.439L39.2906 164.454C35.68 164.016 32.0677 163.9 28.4551 164.108L28.5697 166.104L28.6843 168.101C32.0584 167.907 35.4328 168.015 38.8088 168.425L39.0497 166.439ZM28.5697 166.104L28.4551 164.108C25.036 164.304 21.6171 164.309 18.1981 164.124L18.0897 166.121L17.9813 168.118C21.5489 168.312 25.1167 168.306 28.6843 168.101L28.5697 166.104ZM18.0897 166.121L18.1981 164.124C14.6648 163.932 11.1424 163.847 7.63081 163.869L7.64327 165.869L7.65573 167.869C11.086 167.847 14.5279 167.93 17.9813 168.118L18.0897 166.121ZM7.64327 165.869L7.63081 163.869C6.20434 163.878 5.51608 163.525 5.16946 163.175C4.82041 162.823 4.46801 162.122 4.47989 160.678L2.47996 160.661L0.480024 160.645C0.463164 162.694 0.956941 164.607 2.32899 165.991C3.70348 167.378 5.61125 167.881 7.65573 167.869L7.64327 165.869ZM2.47996 160.661L4.47989 160.678C4.50878 157.166 4.4903 153.655 4.42445 150.144L2.42481 150.181L0.425157 150.219C0.490331 153.694 0.50862 157.169 0.480024 160.645L2.47996 160.661ZM2.42481 150.181L4.42445 150.144C4.3599 146.701 4.42658 143.259 4.62451 139.816L2.62781 139.701L0.631109 139.586C0.42735 143.13 0.358692 146.675 0.425157 150.219L2.42481 150.181ZM2.62781 139.701L4.62451 139.816C4.83001 136.242 4.81839 132.668 4.58968 129.093L2.59376 129.221L0.597842 129.349C0.816227 132.762 0.827312 136.174 0.631109 139.586L2.62781 139.701ZM2.59376 129.221L4.58968 129.093C4.36809 125.631 4.22657 122.168 4.16511 118.706L2.16543 118.741L0.165744 118.777C0.228295 122.301 0.37233 125.825 0.597842 129.349L2.59376 129.221ZM2.16543 118.741L4.16511 118.706C4.10395 115.26 4.16476 111.813 4.34758 108.367L2.35039 108.261L0.353194 108.155C0.16539 111.696 0.102902 115.236 0.165744 118.777L2.16543 118.741ZM2.35039 108.261L4.34758 108.367C4.53129 104.904 4.79334 101.44 5.13373 97.9768L3.14332 97.7812L1.15291 97.5856C0.806672 101.109 0.540096 104.632 0.353194 108.155L2.35039 108.261ZM3.14332 97.7812L5.13373 97.9768C5.48457 94.4069 5.62795 90.8362 5.56374 87.2653L3.56406 87.3012L1.56438 87.3372C1.6258 90.7528 1.48869 94.1689 1.15291 97.5856L3.14332 97.7812ZM3.56406 87.3012L5.56374 87.2653C5.50147 83.8023 5.51816 80.3394 5.61382 76.8764L3.61458 76.8212L1.61534 76.766C1.51801 80.2897 1.50102 83.8134 1.56438 87.3372L3.56406 87.3012ZM3.61458 76.8212L5.61382 76.8764C5.7127 73.2968 5.58028 69.7175 5.21673 66.1391L3.22698 66.3412L1.23722 66.5434C1.58347 69.9516 1.70946 73.359 1.61534 76.766L3.61458 76.8212ZM3.22698 66.3412L5.21673 66.1391C4.8659 62.6858 4.62032 59.2328 4.47995 55.78L2.4816 55.8612L0.483253 55.9424C0.626917 59.4763 0.878251 63.01 1.23722 66.5434L3.22698 66.3412ZM2.4816 55.8612L4.47995 55.78C4.33847 52.2998 4.23139 48.8196 4.1587 45.3394L2.15914 45.3812L0.159575 45.423C0.232809 48.9295 0.340702 52.436 0.483253 55.9424L2.4816 55.8612ZM2.15914 45.3812L4.1587 45.3394C4.08591 41.854 4.03375 38.3686 4.00222 34.8831L2.0023 34.9012L0.0023787 34.9193C0.0340531 38.4205 0.086452 41.9217 0.159575 45.423L2.15914 45.3812ZM2.0023 34.9012L4.00222 34.8831C3.97181 31.5217 4.27156 28.1578 4.90295 24.7897L2.93719 24.4212L0.971429 24.0527C0.29309 27.6713 -0.0304174 31.2941 0.0023787 34.9193L2.0023 34.9012ZM2.93719 24.4212L4.90295 24.7897C5.59266 21.1105 5.75097 17.4248 5.37562 13.7386L3.3859 13.9412L1.39619 14.1438C1.73227 17.4443 1.59144 20.7453 0.971429 24.0527L2.93719 24.4212ZM3.3859 13.9412L5.37562 13.7386C5.0275 10.3199 5.03418 7.73064 5.32886 5.89886L3.35425 5.58119L1.37964 5.26353C1.00509 7.59176 1.03288 10.5759 1.39619 14.1438L3.3859 13.9412ZM3.35425 5.58119L5.32886 5.89886C5.49936 4.83907 5.60638 3.93954 5.61473 3.26598C5.61857 2.95618 5.60639 2.52531 5.48787 2.1088C5.42914 1.9024 5.30013 1.53592 4.99624 1.18998C4.63908 0.783411 4.08007 0.461182 3.39293 0.461182V2.46118V4.46118C2.783 4.46118 2.29114 4.17145 1.99109 3.82988C1.74429 3.54894 1.66234 3.27997 1.6406 3.20356C1.59606 3.04706 1.61765 3.00618 1.61504 3.21639C1.6105 3.58284 1.54377 4.24331 1.37964 5.26353L3.35425 5.58119ZM3.39293 2.46118V0.461182C3.39315 0.461182 3.39545 0.461182 3.39936 0.46122C3.40299 0.461255 3.41051 0.461347 3.42077 0.461609C3.42982 0.461841 3.44884 0.462398 3.47367 0.463786C3.48937 0.464664 3.55018 0.468031 3.62827 0.47871C3.66247 0.483386 3.75317 0.496363 3.86645 0.526266C3.92246 0.541052 4.0269 0.571009 4.15182 0.625225C4.24499 0.665661 4.52401 0.791625 4.792 1.06833C5.11222 1.39896 5.50584 2.06879 5.30011 2.92623C5.1373 3.60483 4.68668 3.96141 4.55245 4.06169C4.25255 4.28574 3.95903 4.36619 3.94255 4.37125C3.8003 4.41487 3.68355 4.43204 3.67423 4.43352C3.6382 4.43925 3.61041 4.44261 3.59862 4.44398C3.55177 4.44946 3.53946 4.44894 3.63891 4.44291C3.7863 4.43396 4.0549 4.41986 4.45321 4.40038C5.24472 4.36166 6.51244 4.30341 8.25878 4.22554L8.16969 2.22753L8.0806 0.229514C6.3336 0.307413 5.05853 0.365989 4.25779 0.405157C3.85997 0.424616 3.57008 0.439724 3.39662 0.450251C3.33564 0.453951 3.22231 0.460729 3.13385 0.471078C3.11686 0.473065 3.0848 0.476986 3.04542 0.483253C3.03275 0.48527 2.91359 0.502932 2.76985 0.547009C2.75263 0.552292 2.45859 0.632965 2.15842 0.85722C2.02405 0.957607 1.57335 1.31429 1.41051 1.99299C1.20475 2.85053 1.5984 3.52046 1.91872 3.85118C2.18681 4.12798 2.46597 4.25404 2.55935 4.29456C2.68448 4.34887 2.78919 4.37892 2.84552 4.39379C2.95945 4.42386 3.05103 4.437 3.08634 4.44183C3.16666 4.45281 3.23061 4.45644 3.2504 4.45755C3.27931 4.45917 3.30334 4.45991 3.31833 4.4603C3.3485 4.46107 3.3753 4.46118 3.39293 4.46118V2.46118Z" fill="#EFB62F"/>
<mask id="mask0_133_2" style="mask-type:alpha" maskUnits="userSpaceOnUse" x="2" y="2" width="165" height="165">
<rect x="3.42969" y="2.96118" width="163" height="163" fill="#BEBEBE" stroke="#BEBEBE"/>
</mask>
<g mask="url(#mask0_133_2)">
<path d="M2.02824 166.444L1.90456 164.448L1.79603 164.455L1.68887 164.473L2.02824 166.444ZM36.792 156.172L35.722 154.482L36.792 156.172ZM62.0935 137.759L60.5812 136.45L62.0935 137.759ZM68.8835 129.731L67.3418 128.457L68.8835 129.731ZM75.0809 121.27L73.4012 120.185L75.0809 121.27ZM80.9112 112.504L82.562 113.634L80.9112 112.504ZM85.9499 103.297L87.7909 104.078L85.9499 103.297ZM90.0681 93.6232L88.2288 92.8377L90.0681 93.6232ZM95.0377 86.4469L96.2959 88.0016L95.0377 86.4469ZM102.86 86.036L103.597 84.1765L102.86 86.036ZM112.109 90.9657L110.976 92.6133L112.109 90.9657ZM121.079 96.3927L120.146 98.1619L121.079 96.3927ZM140 105.336L140.909 103.555L140 105.336ZM149.336 110.187L150.271 108.42L149.336 110.187ZM159.265 113.247L159.044 115.235L159.265 113.247ZM165.723 113.896L165.615 115.893L165.627 115.894L165.639 115.894L165.723 113.896ZM166.831 113.942L167.205 111.978L167.062 111.95L166.916 111.944L166.831 113.942ZM1.92969 166.461L2.26906 168.432L2.36761 168.415L2.02824 166.444L1.68887 164.473L1.59032 164.49L1.92969 166.461ZM2.02824 166.444L2.15191 168.44C9.14615 168.007 14.5115 167.199 18.1067 165.942L17.4467 164.054L16.7867 162.166C13.7298 163.235 8.81622 164.02 1.90456 164.448L2.02824 166.444ZM17.4467 164.054L18.1067 165.942C21.425 164.782 24.7349 163.648 28.0362 162.539L27.3995 160.643L26.7628 158.747C23.4458 159.861 20.1204 161.001 16.7867 162.166L17.4467 164.054ZM27.3995 160.643L28.0362 162.539C31.4978 161.377 34.7741 159.817 37.8621 157.861L36.792 156.172L35.722 154.482C32.905 156.266 29.9197 157.687 26.7628 158.747L27.3995 160.643ZM36.792 156.172L37.8621 157.861C40.7808 156.013 43.7533 154.253 46.7797 152.581L45.8125 150.83L44.8453 149.079C41.7493 150.79 38.7081 152.591 35.722 154.482L36.792 156.172ZM45.8125 150.83L46.7797 152.581C49.9388 150.835 52.9363 148.835 55.7715 146.581L54.5269 145.016L53.2823 143.45C50.6208 145.566 47.8087 147.442 44.8453 149.079L45.8125 150.83ZM54.5269 145.016L55.7715 146.581C58.6168 144.32 61.2286 141.815 63.6058 139.068L62.0935 137.759L60.5812 136.45C58.3664 139.01 55.9338 141.342 53.2823 143.45L54.5269 145.016ZM62.0935 137.759L63.6058 139.068C65.9117 136.404 68.1849 133.716 70.4253 131.005L68.8835 129.731L67.3418 128.457C65.1208 131.145 62.8673 133.809 60.5812 136.45L62.0935 137.759ZM68.8835 129.731L70.4253 131.005C72.7055 128.245 74.8174 125.362 76.7605 122.356L75.0809 121.27L73.4012 120.185C71.5426 123.06 69.5229 125.817 67.3418 128.457L68.8835 129.731ZM75.0809 121.27L76.7605 122.356C78.6519 119.43 80.5858 116.523 82.562 113.634L80.9112 112.504L79.2605 111.375C77.2647 114.293 75.3116 117.229 73.4012 120.185L75.0809 121.27ZM80.9112 112.504L82.562 113.634C84.6227 110.621 86.366 107.435 87.7909 104.078L85.9499 103.297L84.1089 102.515C82.7875 105.628 81.1717 108.581 79.2605 111.375L80.9112 112.504ZM85.9499 103.297L87.7909 104.078C89.1635 100.844 90.5357 97.621 91.9074 94.4086L90.0681 93.6232L88.2288 92.8377C86.8559 96.0528 85.4826 99.2786 84.1089 102.515L85.9499 103.297ZM90.0681 93.6232L91.9074 94.4086C93.2 91.3818 94.6897 89.3014 96.2959 88.0016L95.0377 86.4469L93.7796 84.8922C91.5044 86.7334 89.681 89.4372 88.2288 92.8377L90.0681 93.6232ZM95.0377 86.4469L96.2959 88.0016C97.4579 87.0611 99.2123 86.7425 102.124 87.8955L102.86 86.036L103.597 84.1765C99.9597 82.7363 96.4989 82.6915 93.7796 84.8922L95.0377 86.4469ZM102.86 86.036L102.124 87.8955C105.259 89.1369 108.209 90.7091 110.976 92.6133L112.109 90.9657L113.243 89.3181C110.227 87.2426 107.011 85.5284 103.597 84.1765L102.86 86.036ZM112.109 90.9657L110.976 92.6133C113.931 94.6473 116.988 96.497 120.146 98.1619L121.079 96.3927L122.012 94.6235C118.993 93.0321 116.071 91.2638 113.243 89.3181L112.109 90.9657ZM121.079 96.3927L120.146 98.1619C123.282 99.815 126.479 101.34 129.739 102.737L130.527 100.898L131.315 99.0601C128.153 97.7055 125.052 96.2266 122.012 94.6235L121.079 96.3927ZM130.527 100.898L129.739 102.737C132.909 104.095 136.027 105.555 139.092 107.118L140 105.336L140.909 103.555C137.764 101.951 134.566 100.453 131.315 99.0601L130.527 100.898ZM140 105.336L139.092 107.118C142.187 108.697 145.29 110.309 148.4 111.955L149.336 110.187L150.271 108.42C147.143 106.764 144.023 105.142 140.909 103.555L140 105.336ZM149.336 110.187L148.4 111.955C151.741 113.723 155.293 114.818 159.044 115.235L159.265 113.247L159.486 111.259C156.235 110.898 153.168 109.953 150.271 108.42L149.336 110.187ZM159.265 113.247L159.044 115.235C162.521 115.621 164.741 115.846 165.615 115.893L165.723 113.896L165.831 111.899C165.097 111.859 163.011 111.651 159.486 111.259L159.265 113.247ZM165.723 113.896L165.639 115.894L166.747 115.941L166.831 113.942L166.916 111.944L165.807 111.898L165.723 113.896ZM166.831 113.942L166.457 115.907L166.556 115.926L166.93 113.961L167.304 111.996L167.205 111.978L166.831 113.942Z" fill="#EFB62F"/>
</g>
</svg>
