<svg width="70" height="69" viewBox="0 0 70 69" fill="none" xmlns="http://www.w3.org/2000/svg">
<rect width="68" height="68" fill="#feca3cd5"/>
<path d="M24.9333 67.3523C26.8003 67.11 29.3033 66.7074 31.698 65.7637C33.0269 65.24 34.508 64.4425 35.9652 63.5173C37.4225 62.5921 38.7908 61.5168 40.279 59.9343C41.7671 58.3519 43.3335 56.295 44.5043 54.507C45.6751 52.719 46.4029 51.2622 47.0902 49.68C48.4855 46.4681 48.8182 45.3084 49.2254 45.3083C49.5429 45.3083 54.3926 47.6966 55.3714 48.2475C56.0839 48.6485 58.8711 50.2779 60.8762 51.4856C61.9515 52.1333 65.1582 53.4792 65.8256 53.5216C66.493 53.5641 67.3815 53.583 68.0759 53.5584" stroke="#cf9800a0" stroke-width="2" stroke-linecap="round"/>
</svg>
