<svg width="405" height="323" viewBox="0 0 405 323" fill="none" xmlns="http://www.w3.org/2000/svg">
<path d="M80.5155 261.219C79.1277 259.703 74.5807 248.429 80.3123 231.472C76.5212 233.248 72.6425 235.332 68.77 237.778C59.0469 243.919 54.9181 247.904 52.5473 250.074C51.4293 251.097 50.2788 251.784 52.3852 249.349C59.384 241.261 70.4425 230.223 83.6482 220.822C84.1215 220.485 84.5967 220.15 85.0753 219.815C91.4492 215.354 98.4309 211.012 109.576 205.461C121.559 199.493 137.86 192.343 164.385 183.724C164.426 183.71 164.467 183.697 164.508 183.684C167.32 176.274 169.408 170.343 171.037 166.133C170.305 164.134 169.596 162.2 168.915 160.345C168.352 160.409 167.833 160.437 167.376 160.379C157.775 159.151 159.148 135.039 156.628 128.183C156.283 127.393 156.197 127.25 156.226 127.3C156.371 127.549 156.504 127.845 156.628 128.183C157.478 130.125 159.894 135.977 166.016 152.488C166.908 154.893 167.88 157.528 168.915 160.345C170.345 160.184 172.06 159.791 173.78 159.997C180.049 148.733 192.418 139.73 200.371 137.391C203.182 136.565 207.75 137.285 210.289 137.688C212.828 138.091 213.32 138.897 213.518 140.373C213.998 143.939 213.006 147.129 207.471 155.008C203.958 160.009 197.994 167.929 192.704 175.066C204.414 171.676 216.417 168.409 227.431 165.621C227.646 165.029 227.857 164.451 228.065 163.888C235.001 145.061 237.41 143.832 241.738 143.586C246.066 143.34 252.241 144.114 254.972 147.322C256.826 149.5 257.006 152.789 255.491 159.177C274.193 155.472 283.15 155.283 292.177 156.223C296.511 156.675 300.477 157.097 304.07 157.504C308.421 155.741 313.015 154.527 317.234 153.673C323.155 152.474 327.814 153.847 330.317 154.928C334.5 156.734 336.093 161.141 337.104 167.252C343.921 172.158 350.226 178.778 349.821 185.564C348.822 202.301 341.96 227.097 331.966 224.026C330.215 223.487 332.534 212.559 335.689 196.117C337.377 187.319 338.723 179.267 337.579 170.514C337.431 169.381 337.276 168.292 337.104 167.252C334.021 165.033 330.832 163.165 328.112 161.791C324.96 160.199 316.884 158.955 304.07 157.504C297.246 160.27 291.02 164.385 287.778 170.578C286.884 172.285 285.971 178.236 284.211 187.099C290.452 185.814 297.025 185.685 303.009 187.692C314.37 191.504 330.877 202.837 331.155 211.702C331.265 215.189 331.615 219.193 329.391 223.175C322.043 236.33 313.828 247.642 303.751 254.168C297.371 258.301 291.343 261.657 273.088 265.147C257.453 268.136 229.579 273.112 210.931 275.601C192.283 278.089 183.14 278.089 173.784 277.596C164.429 277.104 155.04 276.667 148.214 275.051C131.219 271.03 125.666 269.66 122.923 265.186C121.797 263.348 122.386 258.898 120.935 253.59C116.086 258.221 111.608 262.275 106.511 263.068C95.8971 264.72 84.1068 265.142 80.5155 261.219Z" fill="white"/>
<path d="M161.636 105C161.058 105 155.646 105.16 140.401 107.249C130.185 108.649 115.283 112.873 105.914 115.53C96.5443 118.188 93.2482 119.697 87.2709 123.534C81.2936 127.371 72.7349 133.49 63.4475 141.752C54.1601 150.014 44.4033 160.233 37.5956 168.285C26.5396 181.361 21.6076 192.285 18.5291 200.459C16.4068 206.094 17.0071 216.507 17.3379 228.911C17.4919 234.683 19.9906 239.87 24 247.289C27.5248 253.811 41.2713 264.83 58.372 278.324C65.7583 284.152 74.7178 287.095 96.7725 293.06C111.388 297.013 133.515 300.608 156.471 302.659C179.427 304.711 202.685 304.538 224.339 302.499C245.993 300.461 265.337 296.562 280.487 292.759C295.637 288.955 306.007 285.364 317.319 280.584C328.63 275.804 340.568 269.944 348.413 265.785C366.288 256.305 374.323 244.774 377.585 238.769C379.653 234.962 381.084 230.888 384.902 217.732C389.004 203.596 387.965 186.482 387.185 171.659C386.086 150.788 381.144 147.277 376.33 141.343C374.477 139.058 370.854 137.113 354.766 131.245C341.314 126.338 316.536 119.214 302.708 115.087C288.879 110.961 286.599 110.483 275.228 109.979C263.856 109.474 243.461 108.958 231.702 108.826C219.943 108.694 217.438 108.962 207.683 109.161C197.928 109.36 180.997 109.481 171.658 109.646C161.079 109.833 149.953 114.239 134.201 120.72C126.613 123.843 123.601 125.702 116.157 130.133C110.132 133.719 99.4365 139.838 90.2418 145.657C81.0472 151.475 73.65 156.761 66.9825 162.2C54.2158 172.613 46.2987 181.776 42.0037 187.875C33.4404 200.034 33.2429 215.243 32.956 221.498C32.8504 223.801 32.6451 227.395 33.1127 230.942C33.2976 232.344 39.1673 225.383 50.5181 211.698C57.9396 202.751 69.7061 190.566 81.1689 179.408C92.6317 168.25 103.683 158.699 110.315 153.173C123.066 142.549 134.314 137.371 151.037 128.689C161.36 123.329 170.832 122.163 184.758 121.183C195.565 120.423 214.016 119.977 228.849 120.405C243.682 120.832 254.351 122.363 262.972 123.969C277.935 126.756 289.569 131.03 298.262 134.362C305.484 137.13 316.973 136.975 344.01 143.633C361.194 147.865 366.363 154.466 371.138 160.424C375.171 165.455 376.406 174.676 377.385 191.949C377.974 202.328 367.279 211.284 354.26 224.053C345.655 232.493 333.133 245.054 323.772 253.503C309.222 266.636 298.66 271.753 287.811 275.381C271.79 280.74 257.345 281.63 250.436 281.367C246.641 281.222 244.864 279.073 242.802 277.619C237.849 274.125 223.195 281.351 202.226 287.239C192.169 290.064 182.925 291.139 174.103 291.788C165.28 292.436 157.063 292.263 148.673 291.416C131.886 289.721 118.285 286.606 103.966 282.498C94.5922 279.808 81.624 273.744 72.9646 269.811C54.4759 261.415 45.8508 251.487 40.7693 243.406C36.7491 237.014 43.7118 228.447 49.3999 220.301C55.4846 211.587 61.5171 209.338 70.7701 204.386C78.3231 200.343 91.9615 193.738 106.01 185.653C120.058 177.568 134.175 168.342 142.773 163.21C151.37 158.077 154.02 157.318 155.49 157.782C156.961 158.246 157.172 159.957 156.688 161.618C154.747 168.271 149.238 170.481 138.974 176.239C130.505 180.99 115.028 188.743 106.566 193.231C94.7221 199.513 90.3 206.949 81.7826 227.559C73.8802 246.681 79.0236 259.589 80.5155 261.219C84.1068 265.142 95.8971 264.72 106.511 263.068C113.087 262.045 118.633 255.593 125.275 249.478C134.122 241.334 140.692 232.533 146.471 223.472C150.128 217.737 154.228 209.069 158.232 199.474C166.466 179.741 170.589 166.134 173.225 161.03C179.293 149.287 192.176 139.801 200.371 137.391C203.182 136.565 207.75 137.285 210.289 137.688C212.828 138.091 213.32 138.897 213.518 140.373C213.998 143.939 213.006 147.129 207.471 155.008C202.555 162.007 192.838 174.722 186.888 183.008C180.939 191.294 178.917 194.668 174.863 204.228C170.81 213.788 164.785 229.43 161.614 238.16C157.995 248.123 158.168 251.56 158.575 255.208C158.944 258.516 161.498 260.364 164.392 261.895C166.359 262.935 169.594 263.986 175.519 262.651C181.445 261.316 190.029 257.428 200.015 237.749C210.001 218.069 221.128 182.715 228.065 163.888C235.001 145.061 237.41 143.832 241.738 143.586C246.066 143.34 252.241 144.114 254.972 147.322C257.702 150.53 256.803 156.147 252.201 170.524C247.599 184.901 239.322 207.867 234.836 220.58C229.748 235.003 229.318 238.219 229.113 241.389C228.848 245.483 230.393 249.888 233.19 253.523C235.599 256.654 238.668 257.465 241.452 257.895C245.838 258.572 250.13 257.886 254.097 255.827C266.41 249.436 271.572 234.488 276.953 216.632C284.336 192.131 286.091 173.799 287.778 170.578C293.088 160.438 306.398 155.866 317.234 153.673C323.155 152.474 327.814 153.847 330.317 154.928C335.212 157.041 336.56 162.716 337.579 170.514C338.723 179.267 337.377 187.319 335.689 196.117C332.534 212.559 330.215 223.487 331.966 224.026C341.96 227.097 348.822 202.301 349.821 185.564C350.409 175.709 336.845 166.202 328.112 161.791C324.076 159.752 311.968 158.284 292.177 156.223C282.233 155.187 272.373 155.522 249.475 160.418C226.577 165.313 190.91 175.105 164.385 183.724C137.86 192.343 121.559 199.493 109.576 205.461C97.5939 211.429 90.424 215.999 83.6482 220.822C70.4425 230.223 59.384 241.261 52.3852 249.349C50.2788 251.784 51.4293 251.097 52.5473 250.074C54.9181 247.904 59.0469 243.919 68.77 237.778C84.5169 227.832 100.365 223.873 110.015 222.244C120.976 220.393 128.09 222.496 129.584 224.371C133.051 228.724 128.632 235.656 126.017 239.274C123.887 242.222 116.991 242.358 109.465 242.42C105.352 242.454 102.103 240.579 98.6695 237.878C97.121 236.66 96.6897 234.951 96.8396 233.67C96.9895 232.389 97.9186 231.384 98.8876 230.866C100.667 229.915 103.198 230.873 105.881 232.164C113.351 235.757 119.112 246.947 120.929 253.569C122.388 258.886 121.795 263.345 122.923 265.186C125.666 269.66 131.219 271.03 148.214 275.051C155.04 276.667 164.429 277.103 173.784 277.596C183.14 278.089 192.283 278.089 210.931 275.601C229.579 273.112 257.453 268.136 273.088 265.147C291.343 261.657 297.371 258.301 303.751 254.168C313.828 247.642 322.043 236.33 329.391 223.175C331.615 219.193 331.265 215.189 331.155 211.702C330.877 202.837 314.37 191.504 303.009 187.692C291.525 183.84 277.876 187.855 268.564 192.811C257.118 198.901 257.323 210.541 256.963 227.023C256.786 235.109 260.807 239.791 263.72 241.851C265.267 242.945 267.388 243.444 269.761 243.716C272.134 243.988 274.805 243.84 283.527 237.625C292.248 231.41 306.938 219.131 314.826 212.387C322.714 205.643 323.354 204.806 322.299 204.915C318.316 205.327 311.735 209.709 303.252 215.781C292.89 223.199 286.252 231.512 283.095 234.524C280.933 236.586 279.497 228.485 276.812 226.641C266.052 219.252 245.134 228.264 230.839 235.456C220.104 240.857 202.758 250.692 192.632 256.125C180.346 262.717 175.586 263.894 171.255 264.485C167.639 264.977 163.49 263.949 158.727 261.809C153.585 259.499 151.655 254.69 150.944 249.832C149.738 241.603 151.183 233.783 154.549 227.438C159.636 217.849 169.498 210.515 177.155 204.528C183.415 199.633 189.254 197.113 196.087 195.333C206.261 192.684 216.447 193.871 224.618 196.161C235.34 199.166 241.627 206.677 244.717 210.043C247.237 212.787 247.921 216.73 247.989 220.6C248.019 222.245 247.655 223.242 246.911 224.227C243.038 229.351 230.212 232.542 213.405 236.499C194.976 240.837 180.422 240.858 173.558 240.154C170.862 239.877 170.083 238.041 169.494 234.373C167.972 224.9 168.701 214.79 170.277 204.975C174.65 177.745 177.393 165.171 177.071 162.643C176.919 161.452 176.105 160.587 174.924 160.232C172.163 159.403 169.252 160.619 167.376 160.379C157.301 159.09 159.311 132.607 156.226 127.3C156.125 127.127 157.402 129.258 166.016 152.488C174.63 175.717 190.696 220.357 199.405 244.096C208.113 267.835 208.977 269.319 209.631 269.551C210.284 269.782 210.701 268.715 209.439 267.055C205.974 262.492 200.066 258.003 193.865 248.332C189.784 241.54 183.804 230.923 180.426 225.054C177.049 219.185 176.455 218.386 175.586 218.018" stroke="#D62E2E" stroke-width="34" stroke-linecap="round"/>
<path d="M141.168 223.672C141.36 224.312 141.456 224.952 141.456 225.592C141.456 226.872 140.944 227.736 139.92 228.184C140.048 229.144 139.664 230.104 138.768 231.064C137.872 232.024 137.04 232.504 136.272 232.504C135.952 233.08 134.992 233.624 133.392 234.136C131.792 234.648 130.32 234.904 128.976 234.904C128.016 234.904 127.28 234.712 126.768 234.328C125.872 234.776 124.592 235 122.928 235C121.456 235 120.112 234.776 118.896 234.328C117.744 233.88 117.04 233.208 116.784 232.312C115.504 232.504 114.064 232.12 112.464 231.16C110.928 230.2 109.936 229.208 109.488 228.184C108.336 227.864 107.376 227.256 106.608 226.36C105.904 225.464 105.52 224.408 105.456 223.192C105.072 222.616 104.88 222.04 104.88 221.464C104.88 220.568 105.168 219.768 105.744 219.064C106.384 218.36 107.12 218.008 107.952 218.008C108.784 218.008 109.584 218.52 110.352 219.544C111.504 219.416 112.528 219.8 113.424 220.696C114.384 221.592 114.864 222.488 114.864 223.384C115.056 223.384 115.536 223.448 116.304 223.576C117.136 223.64 117.872 223.864 118.512 224.248C119.152 224.632 119.6 225.176 119.856 225.88C121.008 225.88 122.128 226.04 123.216 226.36C124.368 226.616 125.04 226.936 125.232 227.32C125.744 227 126.48 226.744 127.44 226.552C128.464 226.296 129.328 226.168 130.032 226.168C130.224 225.912 130.704 225.656 131.472 225.4C132.24 225.144 132.88 224.984 133.392 224.92C133.072 224.472 132.912 223.8 132.912 222.904C132.912 221.56 133.328 220.6 134.16 220.024C133.392 219.768 132.784 219.384 132.336 218.872C131.888 218.296 131.696 217.656 131.76 216.952C131.248 217.08 130.864 217.144 130.608 217.144C129.392 217.144 128.4 216.664 127.632 215.704C126.352 215.832 125.072 215.544 123.792 214.84C122.576 214.136 121.68 213.208 121.104 212.056C120.656 212.248 120.176 212.344 119.664 212.344C118.576 212.344 117.424 212.024 116.208 211.384C115.056 210.68 114.32 210.008 114 209.368C113.104 209.624 112.048 209.336 110.832 208.504C109.616 207.672 109.008 206.744 109.008 205.72C108.24 205.336 107.632 204.696 107.184 203.8C106.736 202.84 106.512 201.976 106.512 201.208C106.512 200.632 106.64 200.248 106.896 200.056C106.576 199.416 106.416 198.776 106.416 198.136C106.416 196.984 106.8 195.992 107.568 195.16C107.376 194.456 107.28 193.816 107.28 193.24C107.28 192.152 107.504 191.256 107.952 190.552C108.464 189.784 109.072 189.464 109.776 189.592C109.648 188.568 109.872 187.672 110.448 186.904C111.088 186.136 111.856 185.592 112.752 185.272C113.712 184.888 114.544 184.76 115.248 184.888C115.632 184.312 116.144 183.864 116.784 183.544C117.424 183.224 118.064 183.064 118.704 183.064C119.792 183.064 120.56 183.384 121.008 184.024C121.072 183.704 121.296 183.448 121.68 183.256C122.128 183.064 122.64 182.968 123.216 182.968C123.728 182.968 124.24 183.064 124.752 183.256C125.264 183.448 125.648 183.672 125.904 183.928C126.288 183.544 126.96 183.352 127.92 183.352C128.688 183.352 129.456 183.512 130.224 183.832C130.992 184.088 131.504 184.472 131.76 184.984C132.144 184.792 132.56 184.696 133.008 184.696C133.776 184.696 134.48 184.984 135.12 185.56C135.824 186.072 136.304 186.744 136.56 187.576C137.52 187.448 138.512 187.768 139.536 188.536C140.56 189.304 140.944 190.072 140.688 190.84C142.416 191.8 143.28 193.112 143.28 194.776C143.28 195.8 142.928 196.696 142.224 197.464C141.52 198.232 140.624 198.616 139.536 198.616C138.576 198.552 137.776 198.296 137.136 197.848C136.496 197.4 136.112 196.856 135.984 196.216C135.152 196.088 134.352 195.768 133.584 195.256C132.88 194.68 132.496 193.944 132.432 193.048C131.216 193.176 130.288 193.048 129.648 192.664C129.072 192.28 128.56 191.672 128.112 190.84C127.664 191.16 127.088 191.32 126.384 191.32C125.68 191.32 124.912 191.128 124.08 190.744C123.632 191.128 123.056 191.448 122.352 191.704C121.712 191.96 121.072 192.088 120.432 192.088C119.728 192.088 119.12 191.928 118.608 191.608C118.736 192.376 118.544 192.984 118.032 193.432C117.52 193.88 116.816 194.04 115.92 193.912C116.112 194.36 116.208 194.84 116.208 195.352C116.208 196.504 115.696 197.464 114.672 198.232C115.376 198.552 115.888 199.096 116.208 199.864C116.528 200.568 116.656 201.272 116.592 201.976L117.36 201.88C119.28 201.88 120.496 202.488 121.008 203.704L121.776 203.608C122.8 203.608 123.76 203.864 124.656 204.376C125.616 204.888 126.32 205.752 126.768 206.968C127.792 206.904 128.784 207.032 129.744 207.352C130.704 207.608 131.376 208.12 131.76 208.888C132.272 208.696 132.752 208.6 133.2 208.6C134.288 208.6 135.248 208.92 136.08 209.56C136.976 210.2 137.456 210.936 137.52 211.768C138.096 211.768 138.608 212.088 139.056 212.728C139.568 213.368 139.76 214.104 139.632 214.936C140.08 214.872 140.496 215.128 140.88 215.704C141.264 216.216 141.456 216.824 141.456 217.528C141.456 217.912 141.36 218.264 141.168 218.584C142.064 219.224 142.512 220.088 142.512 221.176C142.512 221.752 142.384 222.264 142.128 222.712C141.936 223.16 141.616 223.48 141.168 223.672ZM177.577 226.744C177.641 226.424 177.801 226.2 178.057 226.072C178.377 225.944 178.729 225.848 179.113 225.784C179.369 225.72 179.689 225.688 180.073 225.688C181.161 225.688 182.025 226.104 182.665 226.936C183.369 227.704 183.721 228.632 183.721 229.72C183.721 230.552 183.497 231.288 183.049 231.928C182.601 232.504 181.929 232.92 181.033 233.176C179.689 234.328 178.089 234.808 176.233 234.616C175.721 235.064 175.049 235.288 174.217 235.288C173.065 235.288 172.009 234.872 171.049 234.04C170.409 233.912 169.641 233.592 168.745 233.08C167.849 232.504 167.401 231.992 167.401 231.544C166.505 231.416 165.577 230.904 164.617 230.008C163.721 229.112 163.401 228.024 163.657 226.744C162.953 225.976 162.537 225.176 162.409 224.344C161.641 223.96 161.065 223.384 160.681 222.616C160.361 221.848 160.265 221.048 160.393 220.216C159.561 219.448 159.145 218.296 159.145 216.76C159.145 216.184 159.209 215.448 159.337 214.552C158.441 213.848 157.993 212.888 157.993 211.672C157.993 210.584 158.345 209.688 159.049 208.984C158.281 208.216 157.897 207.224 157.897 206.008C157.897 205.56 158.025 205.016 158.281 204.376C157.897 203.608 157.705 202.84 157.705 202.072C157.705 201.048 157.993 200.248 158.569 199.672C158.185 198.904 157.993 198.072 157.993 197.176C157.993 196.408 158.089 195.736 158.281 195.16C158.537 194.52 158.825 194.04 159.145 193.72C158.441 192.888 158.089 191.992 158.089 191.032C158.089 190.52 158.185 189.976 158.377 189.4C157.801 189.592 157.161 189.688 156.457 189.688C155.369 189.688 154.569 189.464 154.057 189.016C153.289 189.208 152.617 189.304 152.041 189.304C150.889 189.304 149.705 188.952 148.489 188.248C147.849 188.632 147.177 188.824 146.473 188.824C145.449 188.824 144.617 188.408 143.977 187.576C143.273 186.68 142.921 185.688 142.921 184.6C142.921 183.64 143.241 182.84 143.881 182.2C144.457 181.496 145.321 181.112 146.473 181.048C147.241 180.728 147.945 180.568 148.585 180.568C149.865 180.568 150.985 180.888 151.945 181.528C152.777 181.208 153.705 181.048 154.729 181.048C155.625 181.048 156.329 181.208 156.841 181.528C156.905 181.272 157.161 181.048 157.609 180.856C158.121 180.6 158.537 180.504 158.857 180.568C158.601 179.992 158.473 179.224 158.473 178.264C158.473 177.112 158.729 176.504 159.241 176.44C158.793 175.8 158.569 174.872 158.569 173.656C158.569 171.992 158.985 170.84 159.817 170.2C159.753 168.92 160.009 167.96 160.585 167.32C161.161 166.68 161.897 166.36 162.793 166.36C163.689 166.36 164.521 166.68 165.289 167.32C166.057 167.896 166.441 168.664 166.441 169.624C166.441 170.264 166.185 171 165.673 171.832C166.313 172.408 166.633 173.368 166.633 174.712C166.633 175.288 166.537 175.896 166.345 176.536C166.217 177.112 166.025 177.56 165.769 177.88C166.153 178.136 166.345 178.648 166.345 179.416C166.345 180.056 166.185 180.92 165.865 182.008C166.441 181.816 167.049 181.72 167.689 181.72C168.649 181.72 169.385 181.944 169.897 182.392C170.537 182.072 171.049 181.912 171.433 181.912C172.073 181.912 172.585 182.168 172.969 182.68C173.417 182.36 173.961 182.2 174.601 182.2C175.497 182.2 176.201 182.552 176.713 183.256C177.929 183.256 178.825 183.544 179.401 184.12C180.041 184.632 180.361 185.304 180.361 186.136C180.361 187.16 179.945 188.152 179.113 189.112C178.345 190.008 177.449 190.456 176.425 190.456C175.849 190.456 175.273 190.264 174.697 189.88C174.057 190.392 173.225 190.648 172.201 190.648C171.241 190.648 170.441 190.424 169.801 189.976C168.969 190.296 168.361 190.456 167.977 190.456C167.465 190.456 166.857 190.232 166.153 189.784C166.729 190.552 167.017 191.384 167.017 192.28C167.017 193.24 166.633 194.104 165.865 194.872C166.441 195.64 166.729 196.6 166.729 197.752C166.729 198.776 166.441 199.736 165.865 200.632C166.633 201.144 167.017 201.976 167.017 203.128C167.017 204.088 166.729 204.92 166.153 205.624C166.793 206.328 167.113 207.576 167.113 209.368C167.113 210.136 167.017 210.776 166.825 211.288C167.273 211.928 167.497 212.6 167.497 213.304C167.497 213.688 167.401 214.2 167.209 214.84C167.081 215.416 166.985 215.896 166.921 216.28C167.689 217.176 168.073 218.04 168.073 218.872C169.161 219.704 169.705 220.696 169.705 221.848C170.985 222.552 171.625 223.736 171.625 225.4C171.753 225.592 171.881 225.72 172.009 225.784C172.137 225.848 172.233 225.912 172.297 225.976L172.969 225.88C173.929 225.88 174.697 226.168 175.273 226.744C175.785 226.616 176.201 226.552 176.521 226.552C176.713 226.552 177.065 226.616 177.577 226.744ZM188.936 197.752C188.424 196.92 188.168 196.12 188.168 195.352C188.168 194.2 188.552 193.24 189.32 192.472C189.512 191.512 189.96 190.616 190.664 189.784C191.368 188.888 192.136 188.216 192.968 187.768C193.864 187.256 194.568 187.064 195.08 187.192C195.528 186.488 196.424 185.848 197.768 185.272C199.112 184.632 200.36 184.312 201.512 184.312C201.768 184.312 202.152 184.376 202.664 184.504C203.368 183.736 204.296 183.352 205.448 183.352C206.344 183.352 206.984 183.608 207.368 184.12C208.2 183.544 209.288 183.256 210.632 183.256C212.232 183.256 213.64 183.64 214.856 184.408C216.136 185.176 216.872 186.2 217.064 187.48C218.216 187.864 219.08 188.472 219.656 189.304C220.296 190.072 220.68 191.16 220.808 192.568C221.64 193.4 222.248 194.392 222.632 195.544C223.016 196.632 223.208 197.752 223.208 198.904C223.208 200.376 222.952 201.56 222.44 202.456C222.888 203.096 223.272 204.056 223.592 205.336C223.912 206.616 224.072 207.864 224.072 209.08C224.072 209.592 224.008 210.232 223.88 211C224.328 211.96 224.552 212.6 224.552 212.92C224.552 213.112 224.456 213.56 224.264 214.264C224.328 214.52 224.392 214.84 224.456 215.224C224.52 215.544 224.552 215.96 224.552 216.472C224.552 217.432 224.2 218.296 223.496 219.064C223.752 219.768 223.88 220.632 223.88 221.656C223.88 223 223.56 224.088 222.92 224.92C223.048 225.176 223.112 225.592 223.112 226.168C223.112 227.512 222.568 228.632 221.48 229.528C221.224 230.424 220.744 231.128 220.04 231.64C219.336 232.088 218.568 232.312 217.736 232.312C216.904 232.312 216.232 232.056 215.72 231.544C214.056 232.248 212.712 232.6 211.688 232.6C211.176 232.6 210.792 232.568 210.536 232.504C208.872 233.016 207.464 233.272 206.312 233.272C205.48 233.272 204.328 233.112 202.856 232.792C201.96 233.304 201.096 233.56 200.264 233.56C199.496 233.56 198.792 233.336 198.152 232.888C197.832 232.952 197.352 232.984 196.712 232.984C194.216 232.984 192.296 231.864 190.952 229.624C188.52 228.216 187.304 226.104 187.304 223.288C187.304 222.584 187.336 222.04 187.4 221.656C186.824 221.272 186.536 220.472 186.536 219.256C186.536 218.424 186.696 217.688 187.016 217.048C186.76 215.896 186.632 215.16 186.632 214.84C186.632 212.984 187.528 211.32 189.32 209.848C190.024 208.376 190.824 207.384 191.72 206.872C192.68 206.36 193.864 205.976 195.272 205.72C195.656 204.632 196.552 203.896 197.96 203.512C199.368 203.128 200.744 203 202.088 203.128C202.472 202.872 203.016 202.648 203.72 202.456C204.424 202.2 205.128 202.072 205.832 202.072C206.6 202.072 207.272 202.2 207.848 202.456C207.976 202.328 208.296 202.264 208.808 202.264C209.192 202.264 209.576 202.296 209.96 202.36C210.344 202.424 210.6 202.52 210.728 202.648C211.624 201.496 212.68 200.92 213.896 200.92C214.28 200.92 214.664 201.016 215.048 201.208V200.92C215.048 199.832 215.272 199.064 215.72 198.616C215.08 198.424 214.376 197.88 213.608 196.984C212.904 196.024 212.488 195.16 212.36 194.392C211.336 193.944 210.632 193.208 210.248 192.184C209.48 192.76 208.584 193.048 207.56 193.048C206.856 193.048 206.184 192.856 205.544 192.472C204.456 192.792 203.752 192.92 203.432 192.856C202.536 193.496 201.544 193.816 200.456 193.816C199.496 195.096 198.376 195.672 197.096 195.544C196.52 196.568 195.72 197.464 194.696 198.232C193.736 199 192.744 199.384 191.72 199.384C190.568 199.384 189.64 198.84 188.936 197.752ZM194.216 219.16C194.984 219.928 195.368 220.664 195.368 221.368C195.368 221.88 195.24 222.52 194.984 223.288C195.24 223.288 195.592 223.448 196.04 223.768C196.552 224.024 196.84 224.312 196.904 224.632C197.416 224.44 198.056 224.344 198.824 224.344C200.232 224.344 201.16 224.664 201.608 225.304C202.312 225.048 203.048 224.92 203.816 224.92C205.032 224.92 205.992 225.272 206.696 225.976C207.208 225.464 208.04 225.048 209.192 224.728C210.408 224.408 211.496 224.248 212.456 224.248C213.032 223.096 214.056 222.424 215.528 222.232C215.656 221.784 216.008 221.208 216.584 220.504C216.328 220.12 216.104 219.608 215.912 218.968C215.72 218.328 215.624 217.688 215.624 217.048C215.624 215.704 215.944 214.712 216.584 214.072C215.88 213.176 215.528 212.12 215.528 210.904C215.528 210.072 215.656 209.368 215.912 208.792C215.4 209.112 214.824 209.272 214.184 209.272C213.608 209.272 213.128 209.048 212.744 208.6C212.168 209.176 211.368 209.464 210.344 209.464C209.704 209.464 209.064 209.304 208.424 208.984C207.72 209.688 206.856 210.04 205.832 210.04C205.512 210.04 205.032 209.912 204.392 209.656C203.432 210.616 202.568 210.904 201.8 210.52C201.416 211.416 200.904 212.024 200.264 212.344C199.688 212.664 198.856 212.824 197.768 212.824C197.512 213.528 197.064 214.104 196.424 214.552C195.848 215 195.24 215.16 194.6 215.032C194.92 215.48 195.08 215.992 195.08 216.568C195.08 217.528 194.792 218.392 194.216 219.16ZM241.241 230.488C241.497 231.896 241.209 233.016 240.377 233.848C239.609 234.616 238.649 235 237.497 235C236.473 235 235.577 234.68 234.809 234.04C234.041 233.336 233.657 232.376 233.657 231.16C233.657 230.392 233.849 229.528 234.233 228.568C233.849 227.672 233.657 226.744 233.657 225.784C233.657 225.016 233.817 224.376 234.137 223.864C233.753 223.608 233.465 223.224 233.273 222.712C233.081 222.2 232.985 221.624 232.985 220.984C232.985 220.344 233.113 219.64 233.369 218.872C232.793 218.168 232.505 217.336 232.505 216.376C232.505 215.16 232.953 214.168 233.849 213.4C233.785 213.208 233.753 212.888 233.753 212.44C233.753 211.8 233.817 211.352 233.945 211.096C233.241 210.2 232.889 208.92 232.889 207.256C232.889 206.104 233.113 205.208 233.561 204.568C233.113 204.184 232.729 203.672 232.409 203.032C232.089 202.328 231.929 201.624 231.929 200.92C231.929 200.152 232.153 199.416 232.601 198.712C232.281 197.944 232.121 197.272 232.121 196.696C232.121 195.736 232.409 194.84 232.985 194.008C232.217 193.24 231.833 192.44 231.833 191.608C231.833 190.968 232.057 190.104 232.505 189.016C232.057 188.12 231.833 187.16 231.833 186.136C231.833 184.792 232.313 183.96 233.273 183.64C233.337 182.744 233.657 182.008 234.233 181.432C234.809 180.856 235.513 180.568 236.345 180.568C237.305 180.568 238.137 181.048 238.841 182.008C239.609 182.904 239.993 184.216 239.993 185.944C239.993 186.648 239.961 187.224 239.897 187.672C240.153 187.544 240.409 187.352 240.665 187.096C240.921 186.776 241.241 186.552 241.625 186.424C242.009 186.296 242.585 186.232 243.353 186.232C243.481 185.912 243.897 185.592 244.601 185.272C245.369 184.952 246.105 184.792 246.809 184.792C247.321 184.792 247.673 184.856 247.865 184.984C248.377 184.728 248.889 184.6 249.401 184.6C250.169 184.6 251.001 185.144 251.897 186.232C253.433 186.104 254.553 186.456 255.257 187.288C256.281 187.224 257.177 187.352 257.945 187.672C258.713 187.992 259.321 188.664 259.769 189.688C260.985 190.456 261.593 191.48 261.593 192.76C261.593 193.848 261.113 194.872 260.153 195.832C259.257 196.728 258.265 197.176 257.177 197.176C255.961 197.176 254.937 196.536 254.105 195.256C253.401 195.256 252.857 195.192 252.473 195.064C252.089 194.936 251.705 194.648 251.321 194.2C250.937 194.328 250.617 194.392 250.361 194.392C249.785 194.392 249.177 194.232 248.537 193.912C247.641 194.488 246.681 194.744 245.657 194.68C245.273 195.576 244.281 196.024 242.681 196.024C242.745 196.216 242.777 196.536 242.777 196.984C242.777 197.816 242.585 198.648 242.201 199.48C241.881 200.248 241.465 200.824 240.953 201.208C241.465 202.424 241.721 203.64 241.721 204.856C241.721 205.944 241.465 206.776 240.953 207.352C241.145 207.608 241.337 207.928 241.529 208.312C241.785 208.696 241.977 209.048 242.105 209.368C242.233 209.88 242.297 210.264 242.297 210.52C242.297 210.968 242.137 211.576 241.817 212.344C242.137 213.112 242.297 213.688 242.297 214.072C242.297 214.584 242.073 215.288 241.625 216.184C242.009 216.824 242.201 217.528 242.201 218.296C242.201 219.192 241.977 219.96 241.529 220.6C241.977 221.624 242.201 222.68 242.201 223.768C242.201 224.6 242.009 225.368 241.625 226.072C241.945 226.712 242.105 227.352 242.105 227.992C242.105 228.888 241.817 229.72 241.241 230.488ZM295.233 226.744C295.297 226.424 295.457 226.2 295.713 226.072C296.033 225.944 296.385 225.848 296.769 225.784C297.025 225.72 297.345 225.688 297.729 225.688C298.817 225.688 299.681 226.104 300.321 226.936C301.025 227.704 301.377 228.632 301.377 229.72C301.377 230.552 301.153 231.288 300.705 231.928C300.257 232.504 299.585 232.92 298.689 233.176C297.345 234.328 295.745 234.808 293.889 234.616C293.377 235.064 292.705 235.288 291.873 235.288C290.721 235.288 289.665 234.872 288.705 234.04C288.065 233.912 287.297 233.592 286.401 233.08C285.505 232.504 285.057 231.992 285.057 231.544C284.161 231.416 283.233 230.904 282.273 230.008C281.377 229.112 281.057 228.024 281.313 226.744C280.609 225.976 280.193 225.176 280.065 224.344C279.297 223.96 278.721 223.384 278.337 222.616C278.017 221.848 277.921 221.048 278.049 220.216C277.217 219.448 276.801 218.296 276.801 216.76C276.801 216.184 276.865 215.448 276.993 214.552C276.097 213.848 275.649 212.888 275.649 211.672C275.649 210.584 276.001 209.688 276.705 208.984C275.937 208.216 275.553 207.224 275.553 206.008C275.553 205.56 275.681 205.016 275.937 204.376C275.553 203.608 275.361 202.84 275.361 202.072C275.361 201.048 275.649 200.248 276.225 199.672C275.841 198.904 275.649 198.072 275.649 197.176C275.649 196.408 275.745 195.736 275.937 195.16C276.193 194.52 276.481 194.04 276.801 193.72C276.097 192.888 275.745 191.992 275.745 191.032C275.745 190.52 275.841 189.976 276.033 189.4C275.457 189.592 274.817 189.688 274.113 189.688C273.025 189.688 272.225 189.464 271.713 189.016C270.945 189.208 270.273 189.304 269.697 189.304C268.545 189.304 267.361 188.952 266.145 188.248C265.505 188.632 264.833 188.824 264.129 188.824C263.105 188.824 262.273 188.408 261.633 187.576C260.929 186.68 260.577 185.688 260.577 184.6C260.577 183.64 260.897 182.84 261.537 182.2C262.113 181.496 262.977 181.112 264.129 181.048C264.897 180.728 265.601 180.568 266.241 180.568C267.521 180.568 268.641 180.888 269.601 181.528C270.433 181.208 271.361 181.048 272.385 181.048C273.281 181.048 273.985 181.208 274.497 181.528C274.561 181.272 274.817 181.048 275.265 180.856C275.777 180.6 276.193 180.504 276.513 180.568C276.257 179.992 276.129 179.224 276.129 178.264C276.129 177.112 276.385 176.504 276.897 176.44C276.449 175.8 276.225 174.872 276.225 173.656C276.225 171.992 276.641 170.84 277.473 170.2C277.409 168.92 277.665 167.96 278.241 167.32C278.817 166.68 279.553 166.36 280.449 166.36C281.345 166.36 282.177 166.68 282.945 167.32C283.713 167.896 284.097 168.664 284.097 169.624C284.097 170.264 283.841 171 283.329 171.832C283.969 172.408 284.289 173.368 284.289 174.712C284.289 175.288 284.193 175.896 284.001 176.536C283.873 177.112 283.681 177.56 283.425 177.88C283.809 178.136 284.001 178.648 284.001 179.416C284.001 180.056 283.841 180.92 283.521 182.008C284.097 181.816 284.705 181.72 285.345 181.72C286.305 181.72 287.041 181.944 287.553 182.392C288.193 182.072 288.705 181.912 289.089 181.912C289.729 181.912 290.241 182.168 290.625 182.68C291.073 182.36 291.617 182.2 292.257 182.2C293.153 182.2 293.857 182.552 294.369 183.256C295.585 183.256 296.481 183.544 297.057 184.12C297.697 184.632 298.017 185.304 298.017 186.136C298.017 187.16 297.601 188.152 296.769 189.112C296.001 190.008 295.105 190.456 294.081 190.456C293.505 190.456 292.929 190.264 292.353 189.88C291.713 190.392 290.881 190.648 289.857 190.648C288.897 190.648 288.097 190.424 287.457 189.976C286.625 190.296 286.017 190.456 285.633 190.456C285.121 190.456 284.513 190.232 283.809 189.784C284.385 190.552 284.673 191.384 284.673 192.28C284.673 193.24 284.289 194.104 283.521 194.872C284.097 195.64 284.385 196.6 284.385 197.752C284.385 198.776 284.097 199.736 283.521 200.632C284.289 201.144 284.673 201.976 284.673 203.128C284.673 204.088 284.385 204.92 283.809 205.624C284.449 206.328 284.769 207.576 284.769 209.368C284.769 210.136 284.673 210.776 284.481 211.288C284.929 211.928 285.153 212.6 285.153 213.304C285.153 213.688 285.057 214.2 284.865 214.84C284.737 215.416 284.641 215.896 284.577 216.28C285.345 217.176 285.729 218.04 285.729 218.872C286.817 219.704 287.361 220.696 287.361 221.848C288.641 222.552 289.281 223.736 289.281 225.4C289.409 225.592 289.537 225.72 289.665 225.784C289.793 225.848 289.889 225.912 289.953 225.976L290.625 225.88C291.585 225.88 292.353 226.168 292.929 226.744C293.441 226.616 293.857 226.552 294.177 226.552C294.369 226.552 294.721 226.616 295.233 226.744Z" fill="white"/>
<path d="M213.242 115.08C212.036 114.118 210.733 113.08 209.299 112.152C209.143 112.598 208.986 113.064 208.847 113.511C207.742 119.59 208.847 130.825 214.588 146.244C220.839 154.965 233.774 171.762 245.498 169.575C246.523 169.384 246.488 168.358 246.17 167.186C245.49 164.682 244.067 160.792 237.787 150.596C226.88 132.886 217.804 118.717 213.265 115.099L213.242 115.08Z" fill="white"/>
<path d="M191.151 92.8997C190.75 92.7429 186.23 90.973 172.896 84.9035C149.848 74.4118 134.577 65.1942 132.603 63.5183C128.706 60.21 146.668 68.4856 156.199 74.579C170.629 83.8037 185.304 90.6784 199.418 93.9758C208.751 96.1562 223.04 96.5386 237.857 96.6949C252.673 96.8512 267.723 96.0469 276.082 95.6935C284.441 95.3401 285.653 95.462 285.593 95.8426C285.534 96.2231 284.167 96.8587 272.598 97.5227C261.029 98.1866 239.299 98.8597 226.656 99.4385C206.629 100.355 201.404 100.549 196.428 100.463C194.287 100.426 191.898 101.189 179.72 107.551C168.789 113.263 148.845 125.19 138.015 131.39C123.951 139.443 120.519 142.151 120.131 143.564C119.696 145.148 132.064 141.229 150.209 133.872C168.096 126.62 177.589 118.926 181.017 116.27C188.167 110.73 196.419 108.689 202.242 109.398C206.825 109.956 210.33 112.758 213.265 115.099C217.804 118.717 226.88 132.886 237.787 150.596C244.067 160.792 245.49 164.682 246.17 167.186C246.488 168.358 246.523 169.384 245.498 169.575C233.774 171.762 220.839 154.965 214.588 146.244C208.847 130.825 207.742 119.59 208.847 113.511C209.358 111.876 210.101 109.978 210.18 109.776" stroke="#A3D316" stroke-width="18" stroke-linecap="round"/>
<path d="M208.855 98.0714C208.96 97.8036 211.831 90.4719 216.889 75.5249C222.116 60.0819 222.145 42.1618 221.342 28.5248C221.078 24.0295 219.74 24.5894 218.933 25.2694C215.846 27.871 214.14 32.6085 210.301 42.3992C208.903 45.9654 209.679 58.7074 209.91 77.3502C209.849 84.9008 209.427 88.5737 209.014 91.0978C208.601 93.6219 208.209 94.886 207.805 96.1883" stroke="#A3D316" stroke-width="18" stroke-linecap="round"/>
<path d="M300.812 101.022C303.007 101.154 317.803 105.905 337.913 113.876C350.969 119.051 357.368 123.781 361.584 127.363C366.108 131.206 369.466 135.743 372.708 140.28C381.743 152.92 386.546 165.58 390.78 173.459C395.375 182.012 394.811 195.302 392.908 208.502C390.605 224.477 386.141 235.642 385.688 238.815C384.333 248.307 379.782 255.488 371.372 265.293C369.125 267.912 360.859 271.622 347.136 279.57C340.267 283.548 333.131 286.591 327.156 289.092C321.181 291.593 316.465 293.248 310.601 295.519C304.736 297.789 297.867 300.625 288.05 303.673C278.233 306.721 265.676 309.895 258.806 311.68C251.107 313.681 249.015 314.462 236.664 315.045C225.609 315.568 204.791 315.244 191.898 315.505C179.005 315.766 174.656 316.288 164.055 316.557C153.454 316.826 136.731 316.826 127.084 316.714C115.366 316.579 111.764 315.663 107.562 314.032C100.787 311.401 94.8496 308.952 84.9586 305.67C76.969 303.019 63.4193 297.041 55.2209 293.762C38.8438 287.212 28.5215 281.874 21.546 275.679C13.6007 268.623 12.6394 261.866 11.1486 248.184C9.73943 235.251 11.1508 226.71 11.6794 225.044C12.2829 223.143 12.5254 213.05 12.4449 198.296C12.4028 190.598 14.041 185.66 16.2094 179.607C18.5586 173.049 20.6494 167.265 25.0962 160.141C33.2744 147.04 41.1758 139.336 45.5547 135.869C55.254 128.189 62.9712 123.48 64.5388 122.617C72.4858 118.241 85.0342 110.418 89.8661 107.771C95.2869 104.803 106.864 100.299 119.901 96.9419C134.305 95.782 150.274 95.7019 153.196 95.5355C155.262 95.4491 158.512 95.3589 161.862 96.3564" stroke="#600000" stroke-width="11" stroke-linecap="round"/>
<path d="M202.399 84.4825C202.399 84.4264 202.399 84.3704 202.381 78.1026C202.363 71.8348 202.328 59.357 202.825 50.6127C203.322 41.8685 204.353 37.2359 205.291 33.7914C206.821 28.1667 208.524 24.8343 209.777 22.638C211.874 18.9632 218.786 15.5069 223.152 14.0154C226.768 12.7804 229.118 15.821 230.847 17.3924C233.502 19.8048 234.691 24.7802 235.319 27.6719C235.504 28.5248 235.391 29.4606 235.431 33.3392C235.467 36.7664 235.362 43.1564 234.515 50.2122C233.668 57.2679 232.039 64.796 230.293 70.9368C227.217 81.7527 224.631 86.6168 224.203 87.3254C223.373 88.816 222.449 89.9239 221.911 90.0343C221.656 89.889 221.437 89.3347 221.211 88.7636" stroke="#33400D" stroke-width="4" stroke-linecap="round"/>
<path d="M221.211 88.7636C221.266 88.7636 221.322 88.7636 231.982 88.3535C242.643 87.9434 263.906 87.1233 275.37 86.798C287.85 86.4439 289.618 87.1158 290.921 87.6599C293.144 88.5884 293.873 91.0646 294.237 93.2738C294.397 94.2455 294.277 95.8089 294.013 96.8924C293.578 98.6728 290.569 100.614 286.682 103.156C283.691 105.111 277.891 106.257 270.877 107.632C266.713 108.448 264.781 108.458 263.785 108.484C262.842 108.508 256.289 108.558 246.03 108.328C241.857 108.234 239.793 107.867 236.628 107.719C229.272 107.374 224.487 107.518 223.093 107.316C220.736 106.923 218.91 106.634 218.109 106.511C217.675 106.425 217.185 106.293 216.663 106.057" stroke="#33400D" stroke-width="4" stroke-linecap="round"/>
<path d="M199.14 120.378C199.197 121.992 199.88 128.335 201.384 135.366C202.168 139.027 203.614 142.729 205.079 146.077C207.848 152.404 210.705 156.316 212.5 158.386C215.347 161.666 220.946 165.011 227.531 168.576C231.321 170.628 236.44 171.309 240.839 172.049C243.662 172.523 245.63 172.076 247.179 171.614C248.3 171.28 249.001 170.447 249.642 169.44C251.289 166.852 250.929 159.655 249.748 154.585C249.063 151.645 247.418 149.744 245.805 146.719C244.59 144.44 243.188 141.957 242.391 139.705C241.896 138.309 239.192 133.404 235.349 126.371C233.048 122.16 230.932 118.89 228.649 115.774C226.85 113.319 224.677 112.307 223.275 111.111C221.207 109.347 219.549 108.739 217.774 108.018C217.31 107.843 216.859 107.654 216.327 107.419C215.796 107.185 215.197 106.911 215.304 107.372" stroke="#33400D" stroke-width="4" stroke-linecap="round"/>
<path d="M180.73 96.3251C180.328 96.3251 178.013 96.7239 170.452 99.9275C166.084 101.779 158.905 105.643 154.268 108.123C149.631 110.603 147.853 111.801 143.591 114.779C139.33 117.757 132.639 122.478 128.206 125.855C123.774 129.233 121.802 131.124 120.659 132.279C118.024 134.942 116.493 137.672 116.45 139.295C116.402 141.054 117.541 142.969 118.539 144.565C119.548 146.179 122.169 147.17 126.341 147.901C128.465 148.274 132.185 148.083 137.709 147.287C143.232 146.491 150.475 144.82 157.528 142.468C164.58 140.115 171.222 137.131 175.12 135.257C179.017 133.383 179.968 132.709 182.196 130.859C184.424 129.008 187.9 126.001 190.35 123.729C192.8 121.457 194.118 120.01 195.673 118.388" stroke="#33400D" stroke-width="4" stroke-linecap="round"/>
<path d="M202.262 84.7465C202.224 84.7465 200.578 83.5372 195.771 80.2439C192.634 78.0949 187.905 75.2381 183.708 72.5346C179.511 69.8311 175.944 67.4346 170.412 64.5547C164.88 61.6747 157.491 58.3839 152.575 56.3887C147.658 54.3936 145.438 53.7938 143.171 53.3531C138.686 52.4815 135.173 52.3778 133.134 52.4746C131.701 52.5426 130.764 53.2634 129.925 54.0234C127.934 55.8283 127.869 58.1684 127.869 62.5294C127.869 65.9483 130.831 68.6362 131.963 70.1615C132.735 71.2007 133.524 72.0106 134.672 73.0678C136.999 75.2101 139.8 77.635 143.198 79.906C147.793 82.977 151.107 84.4305 152.478 85.0106C153.494 85.4492 155.162 86.1805 159.865 87.5572C164.567 88.934 172.255 90.934 180.072 92.4927" stroke="#33400D" stroke-width="4" stroke-linecap="round"/>
<path d="M314.924 116C315.331 116.266 316.797 117.395 317.177 118.456C317.337 118.902 316.628 119.267 315.928 119.441C315.228 119.615 314.353 119.615 314.088 119.488C313.823 119.361 314.195 119.106 314.63 118.958C315.064 118.809 315.551 118.774 316.155 118.633" stroke="#ED5858" stroke-opacity="0.78" stroke-width="10" stroke-linecap="round"/>
<path d="M327 123C327.038 123 327.59 123.052 332.304 125.581C336.564 127.866 344.306 132.956 350.013 136.971C355.72 140.985 359.08 143.966 361.367 146.153C363.654 148.341 364.767 149.644 366.004 151.722C367.241 153.8 368.568 156.613 370 160" stroke="#ED5858" stroke-opacity="0.78" stroke-width="5" stroke-linecap="round"/>
</svg>
